# xmcd CD database file
#
# Track frame offsets:
#	150
#	16520
#	39422
#	57747
#	75110
#	88887
#	107125
#	121607
#	146385
#	165745
#	184257
#	200732
#
# Disc length: 2897 seconds
#
# Revision: 0
# Processed by: cddbd v1.5PL3 Copyright (c) Steve Scherf et al.
# Submitted via: CDex 1.50beta8
#
DISCID=950b4f0c
DTITLE=Hi-Fi Set - Hi-Fi Set Sings Yuming
DYEAR=1900
DGENRE=JPop
TTITLE0=中央フリーウェイ
TTITLE1=雨のステイション
TTITLE2=冷たい雨
TTITLE3=海を見ていた午後
TTITLE4=十円木馬
TTITLE5=卒業写真
TTITLE6=スカイレストラン
TTITLE7=朝陽の中で微笑んで
TTITLE8=Je m`ennuie
TTITLE9=土曜の夜は羽田に来るの
TTITLE10=真夜中の面影
TTITLE11=Farewell Party
EXTD=
EXTT0=
EXTT1=
EXTT2=
EXTT3=
EXTT4=
EXTT5=
EXTT6=
EXTT7=
EXTT8=
EXTT9=
EXTT10=
EXTT11=
PLAYORDER=
